<svg width="38" height="35" viewBox="0 0 38 35" fill="none" xmlns="http://www.w3.org/2000/svg">
<path d="M0.128906 17.2606C0.274552 16.9416 0.274552 16.4629 0.420199 16.1439C1.14843 13.7508 3.04183 11.9958 5.37217 11.8363C6.53734 11.8363 7.55686 12.1553 8.28509 12.7935C9.59591 12.1553 10.7611 11.6767 12.0719 11.1981C13.674 10.5599 15.4218 10.2409 17.1695 10.0813C17.4608 10.0813 17.6064 9.92179 17.6064 9.76225C18.4803 7.05007 19.3542 4.49742 20.0824 1.78524C20.0824 1.6257 20.2281 1.46616 20.2281 1.30662C21.6845 1.6257 23.141 2.10432 24.5975 2.4234C25.0344 2.58294 25.4713 2.58294 26.0539 2.74248C26.3452 2.74248 26.3452 2.74248 26.4909 2.58294C27.5104 1.14708 28.9669 0.508922 30.569 0.668462C32.1711 0.987542 33.3362 2.10432 33.7732 3.85926C34.3558 5.61421 33.7732 7.52869 32.608 8.80501C31.4428 10.0813 29.5494 10.2409 28.093 9.60271C26.4909 8.80501 25.617 7.20961 25.617 5.29513C25.617 5.13559 25.617 5.13559 25.617 4.97605C25.617 4.97605 25.617 4.97605 25.4713 4.97605C24.1605 4.65697 22.8497 4.33788 21.3933 3.85926C20.665 5.93329 20.0824 8.00731 19.3542 10.2409C20.0824 10.4004 20.9563 10.4004 21.6845 10.5599C24.0149 10.879 26.3452 11.6767 28.3843 12.9531C28.5299 13.1126 28.6756 13.1126 28.9669 12.9531C32.3167 10.879 36.2492 13.1126 36.8317 17.2606C36.8317 17.4202 36.8317 17.4202 36.9774 17.5797C36.9774 18.0583 36.9774 18.537 36.9774 18.856C36.9774 18.856 36.9774 18.856 36.9774 19.0156C36.6861 20.7705 35.9579 22.2064 34.6471 23.3232C34.5014 23.3232 34.5014 23.4827 34.5014 23.6422C34.2101 25.7163 33.3362 27.6307 32.0254 29.0666C30.2777 31.1406 28.2386 32.4169 25.9083 33.3742C21.8302 34.9696 17.7521 35.1291 13.5284 34.0123C10.4698 33.2146 7.55686 31.6192 5.37217 29.0666C4.207 27.6307 3.33312 25.8758 3.04183 23.9613C3.04183 23.6422 2.89618 23.4827 2.60489 23.3232C1.87666 22.685 1.14843 22.0468 0.857137 21.0896C0.565845 20.4514 0.420199 19.6537 0.274552 18.856C0.128906 18.0583 0.128906 17.7393 0.128906 17.2606ZM18.626 32.4169C21.3932 32.4169 24.0149 31.9383 26.3452 30.662C28.3843 29.7048 30.132 28.4284 31.4428 26.3544C33.0449 23.8018 33.0449 20.4514 31.4428 18.0583C30.132 15.9843 28.3843 14.708 26.3452 13.7508C23.7236 12.4744 20.8107 11.9958 17.8977 12.1553C15.1305 12.3149 12.5088 12.953 10.0328 14.3889C8.13945 15.5057 6.53734 16.9416 5.51782 19.0156C4.49829 21.0896 4.49829 23.3232 5.51782 25.3972C6.53734 27.4712 8.13945 29.0666 10.0328 30.1834C12.6545 31.7788 15.5674 32.4169 18.626 32.4169ZM27.5104 5.13559C27.5104 6.57145 28.5299 7.68823 29.8407 7.68823C31.1515 7.84777 32.1711 6.73099 32.1711 5.29513C32.1711 3.85926 31.1515 2.74248 29.8407 2.74248C28.6756 2.74248 27.5104 3.85926 27.5104 5.13559ZM6.68298 14.2294C5.22652 13.5912 3.33312 14.2294 2.60489 15.8248C1.73101 17.4202 2.02231 19.8133 3.04183 20.611C3.47877 17.8988 4.93523 15.9843 6.68298 14.2294ZM34.3558 20.4514C35.3753 19.0156 35.3753 16.782 34.2101 15.3462C33.3362 14.2294 31.7341 13.7508 30.7146 14.2294C32.4624 15.8248 33.7732 17.7393 34.3558 20.4514Z" fill="#11211D" stroke="#11211D" stroke-width="0.1"/>
<path d="M18.1893 30.0243C16.2959 30.0243 14.4025 29.3861 12.6547 28.1098C12.0721 27.7907 11.9265 27.1525 12.3634 26.5144C12.6547 26.0358 13.2373 26.0358 13.8199 26.3548C16.7328 28.4289 19.6457 28.4289 22.7043 26.6739C22.9956 26.5144 23.1412 26.3548 23.4325 26.1953C23.8695 25.8762 24.4521 26.0358 24.7434 26.5144C25.0346 26.993 24.889 27.6312 24.4521 27.9502C22.5587 29.2266 20.6653 29.8647 18.1893 30.0243Z" fill="#11211D" stroke="#11211D" stroke-width="0.1"/>
<path d="M15.5692 20.1321C15.5692 21.568 14.404 22.8443 13.0932 22.8443C11.7824 22.8443 10.6172 21.568 10.6172 20.1321C10.6172 18.6962 11.7824 17.4199 13.0932 17.4199C14.5496 17.4199 15.5692 18.6962 15.5692 20.1321Z" fill="#11211D" stroke="#11211D" stroke-width="0.1"/>
<path d="M23.7221 17.4199C25.0329 17.4199 26.1981 18.6962 26.1981 20.1321C26.1981 21.568 25.0329 22.8443 23.7221 22.8443C22.4113 22.8443 21.2461 21.568 21.2461 20.1321C21.2461 18.6962 22.4113 17.4199 23.7221 17.4199Z" fill="#11211D" stroke="#11211D" stroke-width="0.1"/>
</svg>
