<svg width="34" height="24" viewBox="0 0 34 24" fill="none" xmlns="http://www.w3.org/2000/svg">
<path d="M33 6.74917C33 10.5176 33 14.2861 33 18.0546C32.925 18.3933 32.8666 18.732 32.7749 19.0623C32.0081 21.8992 29.5658 23.7708 26.59 23.7792C23.5809 23.7877 20.5718 23.7792 17.5626 23.7792C14.0867 23.7792 10.6025 23.8046 7.1266 23.7623C4.37588 23.7369 1.98359 21.8146 1.24173 19.1216C1.1417 18.7659 1.08336 18.4102 1 18.0461C1 14.2776 1 10.5092 1 6.7407C1.05001 6.49512 1.10003 6.24953 1.15004 6.00395C1.83355 3.01458 4.32587 1.0245 7.41 1.00756C10.0857 0.99909 12.7614 1.00756 15.4371 1.00756C19.2464 1.00756 23.0641 0.982153 26.8734 1.0245C29.7158 1.0499 32.1664 3.09927 32.825 5.9108C32.8833 6.19872 32.9417 6.46971 33 6.74917ZM16.9625 21.8738C20.18 21.8738 23.3975 21.8823 26.615 21.8738C29.199 21.8654 31.1162 19.9092 31.1162 17.2924C31.1162 14.0236 31.1162 10.7548 31.1162 7.48593C31.1162 7.14719 31.0912 6.80845 31.0161 6.47818C30.5577 4.34413 28.8156 2.9299 26.6317 2.92143C23.8226 2.91296 21.0052 2.92143 18.1961 2.92143C14.5369 2.92143 10.8859 2.90449 7.22662 2.9299C4.77598 2.94684 2.86715 4.93692 2.86715 7.41818C2.85882 10.7378 2.86715 14.0659 2.86715 17.3856C2.86715 17.6904 2.90049 18.0038 2.95884 18.3001C3.40896 20.4342 5.16775 21.8654 7.36832 21.8738C10.5692 21.8823 13.77 21.8738 16.9625 21.8738Z" fill="#11211D" stroke="#11211D" stroke-width="0.2"/>
<path d="M12.9453 12.3232C12.9453 10.638 12.9453 8.9612 12.9453 7.27597C12.9453 6.84408 13.0787 6.48841 13.4788 6.27669C13.8539 6.08192 14.1956 6.19201 14.5374 6.41219C16.7463 7.82642 18.9552 9.24066 21.1725 10.6464C21.6476 10.9513 22.1227 11.2477 22.5978 11.561C23.273 12.0098 23.2813 12.8228 22.5978 13.2462C19.8805 14.9484 17.1547 16.6421 14.429 18.3273C13.7122 18.7677 12.962 18.3188 12.9536 17.4551C12.9453 15.7529 12.9453 14.0338 12.9453 12.3232ZM20.3806 12.3994C18.5134 11.2053 16.6963 10.0452 14.8458 8.86804C14.8458 11.2223 14.8458 13.5088 14.8458 15.8461C16.6963 14.6943 18.5051 13.5596 20.3806 12.3994Z" fill="#11211D" stroke="#11211D" stroke-width="0.2"/>
</svg>
