<svg width="26" height="29" viewBox="0 0 26 29" fill="none" xmlns="http://www.w3.org/2000/svg">
<path d="M11.9779 10.9624C10.714 11.1959 9.5223 11.5523 8.3186 11.6014C6.81397 11.6751 5.27323 11.5891 3.78064 11.3925C2.66119 11.2451 1.61397 10.7044 1.36119 9.41413C1.12045 8.18531 1.98712 7.4726 2.80564 6.78447C2.96212 6.66159 3.1186 6.55099 3.28712 6.41582C2.6973 5.28531 2.76952 4.21625 3.62415 3.34379C4.61119 2.33616 5.86304 2.22557 7.13897 2.65565C8.23434 3.01201 9.05286 3.77387 9.66675 4.74463C10.8464 6.58786 11.4964 8.63998 11.9779 10.9624ZM4.98434 6.57557C4.20193 7.17769 3.46767 7.64464 2.85378 8.24676C2.08341 8.99633 2.22786 9.69676 3.21489 10.0654C4.00934 10.3603 4.87601 10.5201 5.7186 10.6061C7.37971 10.7658 9.01675 10.5815 10.6658 10.1146C10.2566 8.32048 9.67878 6.66158 8.66767 5.1993C8.34267 4.73235 7.87323 4.33913 7.40378 3.99506C6.64545 3.45438 5.79082 3.41752 4.93619 3.73701C3.88897 4.13023 3.64823 5.28531 4.4186 6.10862C4.59915 6.26836 4.79175 6.41582 4.98434 6.57557Z" fill="#11211D" stroke="#11211D" stroke-width="0.5"/>
<path d="M14.2656 16.7989C15.7101 16.3073 17.2267 16.0985 18.7434 16.123C19.9952 16.1476 21.2471 16.3688 22.4749 16.6146C23.0165 16.7251 23.5582 17.0323 24.0277 17.3764C24.9665 18.04 25.0989 19.1582 24.3767 20.0429C23.9434 20.5713 23.4138 21.0014 22.9564 21.4438C23.0406 22.0336 23.2452 22.648 23.1851 23.2256C23.0527 24.4052 22.0054 25.1671 20.6452 25.3391C19.1045 25.5357 17.9128 24.9091 16.9499 23.7417C15.5656 22.0828 14.4101 19.0722 14.2656 16.7989ZM15.361 17.6222C15.6499 18.5561 15.8545 19.404 16.1675 20.215C16.6249 21.3946 17.1906 22.5252 18.0934 23.4222C19.0684 24.3807 20.3925 24.5896 21.4638 23.9506C22.1499 23.5451 22.3545 22.8692 21.9573 22.1811C21.7647 21.837 21.4638 21.5667 21.2591 21.3086C21.9452 20.7434 22.6675 20.2273 23.2814 19.6006C23.9915 18.8756 23.8952 18.3718 22.9804 17.9785C22.2221 17.6468 21.3915 17.3887 20.573 17.2904C18.8758 17.0569 17.1545 17.1798 15.361 17.6222Z" fill="#11211D" stroke="#11211D" stroke-width="0.5"/>
<path d="M20.0174 3.37981C21.5582 2.47048 23.4721 3.20777 23.7248 5.55481C23.8572 6.77133 23.5082 7.81582 22.7137 8.71286C20.9443 10.7158 18.585 11.576 15.985 12.2518C15.7684 11.0599 15.5035 9.92938 15.3591 8.78658C15.1304 7.05396 15.1545 5.32133 15.5156 3.60099C15.5276 3.53955 15.5276 3.47811 15.5517 3.41667C15.8526 2.47048 16.2258 1.54887 17.3091 1.37684C18.2841 1.21709 18.898 1.90523 19.4517 2.60565C19.6202 2.85142 19.8008 3.09718 20.0174 3.37981ZM16.8035 10.9124C18.8859 10.2612 20.7878 9.47472 22.1359 7.71752C22.7859 6.86964 22.8461 5.91116 22.473 4.92811C22.1119 3.98192 21.1008 3.78531 20.3785 4.48574C20.1739 4.68235 20.0054 4.90353 19.8128 5.13701C19.6082 4.78065 19.4517 4.44887 19.235 4.16625C18.8498 3.67472 18.4767 3.15862 18.0193 2.74082C17.5017 2.26159 17.1767 2.35989 16.8637 3.01116C16.7193 3.30608 16.5989 3.61328 16.5387 3.93277C16.0693 6.23065 16.2137 8.51625 16.8035 10.9124Z" fill="#11211D" stroke="#11211D" stroke-width="0.5"/>
<path d="M7.42941 24.9087C6.45441 25.4371 5.50349 25.6337 4.61275 24.835C3.52941 23.8519 3.31275 22.574 3.55349 21.1977C3.73404 20.2024 4.33589 19.4159 5.00997 18.7032C6.50256 17.1303 8.32015 16.1596 10.4146 15.582C11.1007 17.0812 11.522 18.6541 11.7868 20.2638C12.0035 21.6032 12.0998 22.9426 11.7989 24.282C11.5942 25.1668 11.3776 26.1129 10.3785 26.3833C9.36737 26.6536 8.56089 26.1252 7.86275 25.4125C7.73034 25.2651 7.60997 25.1053 7.42941 24.9087ZM9.83682 16.9337C9.33126 17.1303 8.90997 17.2655 8.52478 17.4621C6.95997 18.2731 5.56367 19.2808 4.76923 20.9396C4.33589 21.8613 4.45626 22.7829 4.99793 23.6185C5.55163 24.4663 6.39423 24.5032 7.08034 23.7659C7.21274 23.6185 7.33312 23.471 7.46552 23.3235C7.41737 23.385 7.38126 23.4587 7.33312 23.5202C7.86275 23.9625 8.38034 24.4049 8.90997 24.8473C9.93311 25.7197 10.4146 25.5723 10.7276 24.2452C11.3053 21.7261 10.6313 19.3668 9.83682 16.9337Z" fill="#11211D" stroke="#11211D" stroke-width="0.5"/>
</svg>
