<svg width="38" height="31" viewBox="0 0 38 31" fill="none" xmlns="http://www.w3.org/2000/svg">
<path d="M33.3685 7.38896L33.0331 7.63477L33.0639 8.04947C33.0859 8.34529 33.0863 8.64381 33.0863 8.97453C33.0863 18.6363 25.7366 29.7139 12.3488 29.7139C9.28778 29.7139 6.3898 29.0573 3.78126 27.8727C6.91797 27.6409 9.92545 26.4817 12.4142 24.529L14.0733 23.2272L11.9648 23.189C10.5449 23.1633 9.16852 22.6949 8.02776 21.8491C7.20706 21.2406 6.53781 20.4586 6.0641 19.5646C6.14699 19.567 6.23061 19.5683 6.315 19.5683C7.05934 19.5683 7.80296 19.4654 8.49185 19.2876L8.45281 17.8262C6.91226 17.5152 5.52699 16.6802 4.53256 15.4631C3.77502 14.536 3.27991 13.4308 3.08798 12.2621C3.88399 12.5528 4.74138 12.7296 5.63224 12.7634L8.2954 12.8642L6.07572 11.3892C5.14211 10.7689 4.37659 9.92702 3.84744 8.93884C3.31829 7.95066 3.04196 6.84687 3.04312 5.72593V5.72516C3.04312 4.85133 3.20319 4.02955 3.49638 3.272C5.31919 5.28866 7.49876 6.95645 9.92873 8.18958C12.7052 9.59854 15.7467 10.4086 18.8561 10.5673L19.8252 10.6168L19.6289 9.66649C19.5209 9.14417 19.4569 8.61258 19.4569 8.08766V8.08729C19.4564 7.19389 19.6321 6.30917 19.9738 5.4837C20.3154 4.65823 20.8165 3.90819 21.4482 3.27646C22.0799 2.64474 22.8299 2.14372 23.6554 1.80203C24.4809 1.46035 25.3656 1.28471 26.259 1.28516H26.2594C28.2205 1.28516 29.9874 2.10575 31.23 3.43279L31.5132 3.73516L31.9199 3.65652C32.9376 3.45972 33.9313 3.16281 34.8869 2.77118C34.3495 3.51019 33.6641 4.13912 32.8661 4.61363L33.3344 6.00345C34.0224 5.92497 34.7037 5.80169 35.3739 5.63477C34.7582 6.27498 34.0875 6.86209 33.3685 7.38896ZM2.57411 27.2759L2.57256 27.9158C2.57283 27.9158 2.57309 27.9158 2.57335 27.9158C2.57369 27.9158 2.57403 27.9158 2.57438 27.9158V27.276C2.57429 27.276 2.5742 27.276 2.57411 27.2759Z" stroke="#11211D" stroke-width="1.5"/>
<path d="M33.3685 7.38896L33.0331 7.63477L33.0639 8.04947C33.0859 8.34529 33.0863 8.64381 33.0863 8.97453C33.0863 18.6363 25.7366 29.7139 12.3488 29.7139C9.28778 29.7139 6.3898 29.0573 3.78126 27.8727C6.91797 27.6409 9.92545 26.4817 12.4142 24.529L14.0733 23.2272L11.9648 23.189C10.5449 23.1633 9.16852 22.6949 8.02776 21.8491C7.20706 21.2406 6.53781 20.4586 6.0641 19.5646C6.14699 19.567 6.23061 19.5683 6.315 19.5683C7.05934 19.5683 7.80296 19.4654 8.49185 19.2876L8.45281 17.8262C6.91226 17.5152 5.52699 16.6802 4.53256 15.4631C3.77502 14.536 3.27991 13.4308 3.08798 12.2621C3.88399 12.5528 4.74138 12.7296 5.63224 12.7634L8.2954 12.8642L6.07572 11.3892C5.14211 10.7689 4.37659 9.92702 3.84744 8.93884C3.31829 7.95066 3.04196 6.84687 3.04312 5.72593V5.72516C3.04312 4.85133 3.20319 4.02955 3.49638 3.272C5.31919 5.28866 7.49876 6.95645 9.92873 8.18958C12.7052 9.59854 15.7467 10.4086 18.8561 10.5673L19.8252 10.6168L19.6289 9.66649C19.5209 9.14417 19.4569 8.61258 19.4569 8.08766V8.08729C19.4564 7.19389 19.6321 6.30917 19.9738 5.4837C20.3154 4.65823 20.8165 3.90819 21.4482 3.27646C22.0799 2.64474 22.8299 2.14372 23.6554 1.80203C24.4809 1.46035 25.3656 1.28471 26.259 1.28516H26.2594C28.2205 1.28516 29.9874 2.10575 31.23 3.43279L31.5132 3.73516L31.9199 3.65652C32.9376 3.45972 33.9313 3.16281 34.8869 2.77118C34.3495 3.51019 33.6641 4.13912 32.8661 4.61363L33.3344 6.00345C34.0224 5.92497 34.7037 5.80169 35.3739 5.63477C34.7582 6.27498 34.0875 6.86209 33.3685 7.38896ZM2.57411 27.2759L2.57256 27.9158C2.57283 27.9158 2.57309 27.9158 2.57335 27.9158C2.57369 27.9158 2.57403 27.9158 2.57438 27.9158V27.276C2.57429 27.276 2.5742 27.276 2.57411 27.2759Z" stroke="black" stroke-width="1.5"/>
<path d="M33.3685 7.38896L33.0331 7.63477L33.0639 8.04947C33.0859 8.34529 33.0863 8.64381 33.0863 8.97453C33.0863 18.6363 25.7366 29.7139 12.3488 29.7139C9.28778 29.7139 6.3898 29.0573 3.78126 27.8727C6.91797 27.6409 9.92545 26.4817 12.4142 24.529L14.0733 23.2272L11.9648 23.189C10.5449 23.1633 9.16852 22.6949 8.02776 21.8491C7.20706 21.2406 6.53781 20.4586 6.0641 19.5646C6.14699 19.567 6.23061 19.5683 6.315 19.5683C7.05934 19.5683 7.80296 19.4654 8.49185 19.2876L8.45281 17.8262C6.91226 17.5152 5.52699 16.6802 4.53256 15.4631C3.77502 14.536 3.27991 13.4308 3.08798 12.2621C3.88399 12.5528 4.74138 12.7296 5.63224 12.7634L8.2954 12.8642L6.07572 11.3892C5.14211 10.7689 4.37659 9.92702 3.84744 8.93884C3.31829 7.95066 3.04196 6.84687 3.04312 5.72593V5.72516C3.04312 4.85133 3.20319 4.02955 3.49638 3.272C5.31919 5.28866 7.49876 6.95645 9.92873 8.18958C12.7052 9.59854 15.7467 10.4086 18.8561 10.5673L19.8252 10.6168L19.6289 9.66649C19.5209 9.14417 19.4569 8.61258 19.4569 8.08766V8.08729C19.4564 7.19389 19.6321 6.30917 19.9738 5.4837C20.3154 4.65823 20.8165 3.90819 21.4482 3.27646C22.0799 2.64474 22.8299 2.14372 23.6554 1.80203C24.4809 1.46035 25.3656 1.28471 26.259 1.28516H26.2594C28.2205 1.28516 29.9874 2.10575 31.23 3.43279L31.5132 3.73516L31.9199 3.65652C32.9376 3.45972 33.9313 3.16281 34.8869 2.77118C34.3495 3.51019 33.6641 4.13912 32.8661 4.61363L33.3344 6.00345C34.0224 5.92497 34.7037 5.80169 35.3739 5.63477C34.7582 6.27498 34.0875 6.86209 33.3685 7.38896ZM2.57411 27.2759L2.57256 27.9158C2.57283 27.9158 2.57309 27.9158 2.57335 27.9158C2.57369 27.9158 2.57403 27.9158 2.57438 27.9158V27.276C2.57429 27.276 2.5742 27.276 2.57411 27.2759Z" stroke="black" stroke-width="1.5"/>
</svg>
