<svg width="37" height="28" viewBox="0 0 37 28" fill="none" xmlns="http://www.w3.org/2000/svg">
<path d="M1 21.4161C1.09115 20.5974 1.17318 19.788 1.27344 18.9693C1.82031 14.7156 2.65885 10.5372 4.41797 6.61289C4.50911 6.39644 4.6276 6.19881 4.71875 5.98236C5.19271 4.7966 6.00391 3.97786 7.125 3.37557C9.09375 2.32155 11.0898 1.38047 13.3138 1.06051C13.5143 1.03227 13.724 1.02286 13.9245 1.00404C14.4349 0.966397 14.7904 1.19226 15.0273 1.6628C15.5104 2.63211 16.0117 3.60143 16.4857 4.57074C16.5859 4.77778 16.6953 4.85307 16.9323 4.84365C17.9896 4.82483 19.0469 4.83424 20.1042 4.84365C20.3047 4.84365 20.4049 4.78719 20.4961 4.59897C20.9792 3.62966 21.4805 2.66034 21.9544 1.69103C22.2005 1.19226 22.5651 0.966397 23.112 1.00404C24.8255 1.12638 26.4388 1.6628 27.9792 2.40625C29.0091 2.90503 29.9935 3.49791 30.9779 4.08138C31.2148 4.22254 31.4245 4.45781 31.5612 4.69308C32.9557 7.02696 33.8216 9.5773 34.487 12.2123C35.2253 15.1297 35.6901 18.0941 35.9362 21.0961C35.9453 21.1997 35.9727 21.3032 36 21.3973C36 21.6514 36 21.9149 36 22.169C35.7995 22.4419 35.6263 22.7713 35.3802 22.9877C34.5417 23.7312 33.7214 24.4934 32.8099 25.1334C30.5951 26.6956 28.1706 27.6461 25.4544 27.6931C24.9805 27.7025 24.6341 27.5331 24.3424 27.1473C23.5404 26.0745 22.7201 25.0205 21.918 23.957C21.7812 23.7782 21.6536 23.7123 21.4349 23.7406C19.4935 23.957 17.5521 23.957 15.6107 23.7406C15.3919 23.7123 15.237 23.7594 15.0911 23.957C14.2799 25.0487 13.4414 26.1215 12.6302 27.2038C12.375 27.5426 12.056 27.7402 11.6276 27.6931C10.7253 27.5896 9.80469 27.552 8.92969 27.3449C6.25 26.705 3.98047 25.2557 1.97526 23.3453C1.61068 22.9971 1.32812 22.5736 1.00911 22.1784C1 21.9337 1 21.6796 1 21.4161ZM22.5651 5.08834C22.7747 5.12598 22.9388 5.15421 23.0938 5.18244C25.0534 5.52123 26.9583 6.06706 28.763 6.94227C29.319 7.21518 29.5469 7.80806 29.3099 8.35389C29.0729 8.89972 28.4896 9.13499 27.9336 8.87148C25.8099 7.87394 23.5768 7.30929 21.2617 7.06461C18.4271 6.76346 15.6198 6.90462 12.8398 7.55397C11.5638 7.85512 10.3242 8.2786 9.13021 8.84325C8.45573 9.16322 7.75391 8.81502 7.63542 8.13744C7.53516 7.60102 7.76302 7.16813 8.28255 6.91403C9.64062 6.26469 11.0534 5.79415 12.5117 5.46477C13.1406 5.32361 13.7695 5.21068 14.4349 5.06951C14.1615 4.52369 13.888 4.02491 13.6602 3.50732C13.5234 3.20617 13.3594 3.16853 13.0768 3.2344C11.7005 3.53555 10.3789 4.00609 9.13932 4.69308C6.7513 6.0106 7.20703 5.4083 6.06771 8.05274C4.25391 12.2688 3.53385 16.7578 3.1237 21.322C3.11458 21.4538 3.19661 21.642 3.30599 21.7361C3.9987 22.3195 4.68229 22.9312 5.42969 23.4488C7.03385 24.5687 8.78385 25.3216 10.7253 25.5569C11.0898 25.6039 11.3451 25.5569 11.5547 25.2087C11.7643 24.8605 12.0378 24.5593 12.2839 24.2299C12.5026 23.9476 12.7122 23.6653 12.9492 23.3453C12.7578 23.2983 12.6302 23.27 12.4935 23.2324C10.2786 22.7148 8.17318 21.9243 6.26823 20.6256C5.73047 20.2586 5.58464 19.6375 5.90365 19.1293C6.22266 18.6211 6.83333 18.4893 7.37109 18.847C9.11198 20.0139 11.026 20.7291 13.0404 21.1902C16.0664 21.8772 19.1107 21.9619 22.1732 21.5196C24.8255 21.1338 27.3503 20.3621 29.6289 18.847C29.7747 18.7528 29.957 18.6776 30.1302 18.6587C30.5859 18.5929 31.0326 18.894 31.1875 19.3269C31.3607 19.8163 31.2057 20.3056 30.75 20.6162C29.6654 21.3596 28.5078 21.9619 27.2682 22.3854C26.2292 22.7524 25.1719 23.0536 24.0781 23.3924C24.3698 23.7688 24.6706 24.1641 24.9714 24.5593C25.8372 25.6886 25.8372 25.6886 27.2318 25.3781C29.7656 24.8134 31.8802 23.4677 33.7578 21.6608C33.849 21.5761 33.8945 21.3879 33.8763 21.2561C33.6484 18.4423 33.2109 15.6567 32.5365 12.9181C31.9531 10.5278 31.1966 8.20332 29.9844 6.06706C29.8932 5.90708 29.7474 5.74709 29.5924 5.65298C28.6536 5.16362 27.7331 4.59897 26.7487 4.17549C25.819 3.78023 24.8255 3.52614 23.8594 3.2344C23.7409 3.19676 23.513 3.25323 23.4583 3.33792C23.1484 3.90257 22.875 4.47663 22.5651 5.08834Z" fill="#11211D" stroke="#11211D" stroke-width="0.3"/>
<path d="M22.5631 5.08652C22.873 4.47481 23.1465 3.89134 23.4564 3.33611C23.5019 3.25141 23.7389 3.19494 23.8574 3.23259C24.8235 3.52432 25.817 3.769 26.7467 4.17367C27.7311 4.59716 28.6517 5.1618 29.5905 5.68881C29.7454 5.77351 29.8913 5.9429 29.9824 6.10288C31.1946 8.23914 31.9511 10.5636 32.5345 12.954C33.209 15.6925 33.6465 18.4687 33.8743 21.2919C33.8834 21.4237 33.8379 21.6119 33.7558 21.6966C31.8873 23.4941 29.7728 24.8492 27.2298 25.4139C25.8353 25.7244 25.8353 25.7244 24.9694 24.5951C24.6686 24.1999 24.3678 23.8046 24.0761 23.4282C25.1608 23.0894 26.2272 22.7882 27.2663 22.4212C28.4967 21.9883 29.6634 21.3955 30.748 20.652C31.2038 20.3414 31.3587 19.8521 31.1855 19.3627C31.0306 18.9298 30.584 18.6287 30.1282 18.6945C29.9551 18.7228 29.7728 18.7887 29.6269 18.8828C27.3483 20.3979 24.8235 21.1696 22.1712 21.5554C19.1087 21.9977 16.0644 21.913 13.0384 21.2261C11.0241 20.7743 9.11 20.0497 7.36912 18.8828C6.83136 18.5252 6.22068 18.6475 5.90167 19.1651C5.58266 19.6733 5.72849 20.3038 6.26625 20.6614C8.1712 21.9601 10.2858 22.7412 12.4915 23.2682C12.6191 23.2964 12.7558 23.3341 12.9472 23.3811C12.7103 23.7011 12.4915 23.9834 12.2819 24.2657C12.0358 24.5857 11.7623 24.8963 11.5527 25.2445C11.3431 25.5927 11.0788 25.6397 10.7233 25.5927C8.78188 25.3574 7.03188 24.6045 5.42771 23.4847C4.68943 22.9671 4.00584 22.3554 3.30402 21.7719C3.20376 21.6872 3.11261 21.499 3.12172 21.3578C3.52277 16.803 4.25193 12.3046 6.06573 8.08857C7.20506 5.44413 6.74933 6.04642 9.13735 4.72891C10.3769 4.04192 11.6985 3.57138 13.0748 3.27023C13.3574 3.20436 13.5306 3.242 13.6582 3.54314C13.886 4.06074 14.1595 4.56892 14.4329 5.10534C13.7676 5.23709 13.1386 5.35943 12.5097 5.50059C11.0514 5.82997 9.63865 6.30992 8.28058 6.94986C7.76105 7.19454 7.53318 7.62744 7.63344 8.17326C7.75193 8.85084 8.46287 9.18963 9.12823 8.87907C10.3222 8.31442 11.5618 7.89094 12.8379 7.58979C15.6178 6.93104 18.4251 6.79928 21.2597 7.10043C23.5748 7.34511 25.8079 7.90976 27.9316 8.90731C28.4876 9.17081 29.0709 8.93554 29.3079 8.38971C29.5449 7.84388 29.317 7.251 28.761 6.97809C26.9564 6.10288 25.0514 5.55706 23.0918 5.21827C22.9277 5.1618 22.7728 5.13357 22.5631 5.08652ZM27.011 14.902C27.011 14.0174 26.8288 13.2363 26.4186 12.5211C25.097 10.1966 22.1712 9.98014 20.5761 12.0693C19.3183 13.7162 19.4004 16.1913 20.7584 17.7535C22.1256 19.3157 24.3587 19.3815 25.7988 17.8946C26.61 17.0571 26.9837 16.0219 27.011 14.902ZM9.985 14.7985C9.94855 14.8079 9.9212 14.8173 9.88474 14.8267C10.0579 15.4666 10.1582 16.1442 10.4225 16.7371C11.5254 19.2027 14.4238 19.7297 16.1829 17.8193C17.6595 16.2101 17.6959 13.5092 16.2558 11.8717C14.916 10.3472 12.8196 10.206 11.3431 11.5706C10.4225 12.4269 10.0123 13.528 9.985 14.7985Z" fill="white" stroke="#11211D" stroke-width="0.3"/>
<path d="M27.0137 14.9041C26.9864 16.024 26.6127 17.0592 25.8015 17.8967C24.3614 19.3836 22.1283 19.3272 20.7611 17.7556C19.3939 16.2028 19.3119 13.7183 20.5788 12.0714C22.183 9.97281 25.0997 10.1987 26.4213 12.5231C26.8223 13.2384 27.0137 14.0195 27.0137 14.9041ZM21.7181 14.8006C21.7364 15.3746 21.8913 15.911 22.2741 16.3439C22.8757 17.0121 23.7689 17.0215 24.3887 16.3628C25.1543 15.544 25.1452 14.0289 24.3705 13.2101C23.7598 12.5702 22.8757 12.5796 22.2833 13.2384C21.9004 13.6901 21.7455 14.2171 21.7181 14.8006Z" fill="#11211D" stroke="#11211D" stroke-width="0.3"/>
<path d="M9.98698 14.7989C10.0052 13.5284 10.4154 12.418 11.3451 11.5616C12.8307 10.197 14.918 10.3288 16.2578 11.8627C17.6979 13.5096 17.6706 16.2011 16.1849 17.8103C14.4258 19.7207 11.5182 19.1937 10.4245 16.7281C10.1602 16.1352 10.0599 15.4576 9.88672 14.8177C9.92318 14.8177 9.95964 14.8083 9.98698 14.7989ZM15.2826 14.8271C15.2643 14.2531 15.1185 13.7449 14.7721 13.312C14.1979 12.6156 13.2956 12.5591 12.6667 13.1802C11.8281 14.0084 11.8464 15.6459 12.7031 16.4552C13.2591 16.9728 14.0339 16.9916 14.5898 16.474C15.0729 16.0317 15.2552 15.4576 15.2826 14.8271Z" fill="#11211D" stroke="#11211D" stroke-width="0.3"/>
</svg>
