<svg width="34" height="27" viewBox="0 0 34 27" fill="none" xmlns="http://www.w3.org/2000/svg">
<path d="M1 12.2396C1.26247 11.4883 1.89365 11.1097 2.63732 10.8417C6.10569 9.60694 9.5678 8.37213 13.0362 7.14315C18.5418 5.1861 24.0475 3.22905 29.5531 1.26617C30.0718 1.07979 30.603 0.945823 31.1654 1.02154C32.4403 1.19628 33.2027 2.23887 32.9527 3.52028C32.6028 5.26182 32.2153 6.99754 31.8403 8.73908C30.7905 13.5851 29.7343 18.4253 28.6844 23.2714C28.6032 23.6325 28.5345 23.9936 28.4407 24.3489C27.9533 26.137 26.1285 26.7777 24.5099 25.706C23.7162 25.176 22.9726 24.5761 22.2102 24.0052C21.229 23.2714 20.2479 22.5316 19.248 21.7861C18.6793 22.2695 18.1231 22.7471 17.5669 23.2248C16.9857 23.7257 16.4045 24.2266 15.8234 24.7217C15.1359 25.3041 14.3548 25.6594 13.4049 25.4905C12.3862 25.3099 11.7738 24.6751 11.4363 23.8014C10.9239 22.4909 10.4427 21.1687 9.94901 19.8523C9.45532 18.536 8.95537 17.2196 8.46793 15.9033C8.39918 15.7169 8.29919 15.6237 8.09922 15.5655C6.34941 15.1053 4.5996 14.6394 2.8498 14.1734C2.74981 14.1443 2.64982 14.121 2.54983 14.086C1.83116 13.8414 1.24997 13.4686 1 12.7639C1 12.5891 1 12.4144 1 12.2396ZM16.3983 17.3885C16.492 17.4643 16.5733 17.5283 16.6483 17.5924C18.7168 19.1476 20.7853 20.6969 22.8538 22.2462C23.7537 22.9219 24.6474 23.6034 25.5598 24.2615C26.1035 24.6518 26.4534 24.5178 26.6159 23.9004C26.7097 23.5509 26.7784 23.2015 26.8534 22.8462C28.1595 16.8236 29.4719 10.801 30.778 4.77838C30.8904 4.26582 31.0154 3.75326 31.0967 3.23487C31.1717 2.78638 31.0154 2.66407 30.5655 2.78638C30.3093 2.85628 30.053 2.94947 29.8031 3.03684C21.2853 6.06561 12.7675 9.09438 4.25589 12.129C3.96842 12.228 3.6872 12.3387 3.32474 12.4668C3.45598 12.5076 3.51222 12.525 3.56222 12.5425C5.31202 13.0085 7.05558 13.4803 8.81164 13.9346C8.93037 13.9637 9.09911 13.9288 9.21159 13.8705C13.5299 11.8203 17.8419 9.7642 22.1602 7.70813C23.1038 7.25964 24.0475 6.80533 24.9974 6.36266C25.4473 6.15298 25.9285 6.25782 26.2035 6.59564C26.4784 6.93929 26.4472 7.38778 26.116 7.74308C26.0222 7.84792 25.916 7.94112 25.816 8.04013C23.2913 10.5447 20.7603 13.0434 18.2356 15.548C17.6357 16.1596 17.0232 16.7653 16.3983 17.3885ZM12.7924 22.1589C12.8362 22.0191 12.8612 21.9608 12.8737 21.9084C13.2611 20.4523 13.6549 18.9961 14.0298 17.5342C14.1173 17.1905 14.2923 16.9168 14.5485 16.6605C16.6358 14.6044 18.7168 12.5367 20.7978 10.4748C20.8541 10.4224 20.8978 10.3583 21.0103 10.2302C17.3669 11.9659 13.8173 13.655 10.2427 15.3558C11.0864 17.6099 11.9238 19.8465 12.7924 22.1589ZM14.386 23.4985C14.3985 23.5102 14.4173 23.5218 14.4298 23.5276C15.5359 22.5782 16.642 21.6288 17.7669 20.662C17.0232 20.1028 16.3108 19.5728 15.5734 19.0136C15.1672 20.5396 14.7797 22.0191 14.386 23.4985Z" fill="#11211D" stroke="#11211D" stroke-width="0.3"/>
</svg>
