<svg width="12" height="24" viewBox="0 0 12 24" fill="none" xmlns="http://www.w3.org/2000/svg">
<path d="M0.385886 11.0212C0.385686 10.9191 0.385486 10.8165 0.38531 10.7134C0.796058 10.9163 1.18657 11.1104 1.57692 11.3089L1.57762 11.3093C2.57807 11.8152 3.57879 12.3222 4.57965 12.8293C6.58095 13.8432 8.58282 14.8575 10.5843 15.8638C10.6916 15.9205 10.7288 15.9599 10.7438 15.9829C10.7543 15.999 10.7729 16.0347 10.7671 16.1345L10.767 16.1373C10.7566 16.3443 10.7759 16.5798 10.7925 16.7832C10.7992 16.8645 10.8054 16.9406 10.8092 17.0078C10.8244 17.2797 10.8074 17.4592 10.7437 17.5822C10.6923 17.6814 10.5674 17.7783 10.3179 17.889C10.2198 17.9326 10.1173 17.9723 10.006 18.0154C9.98182 18.0248 9.95719 18.0344 9.93209 18.0442C9.79703 18.0968 9.65016 18.1558 9.5134 18.2256L9.51202 18.2263C8.7158 18.6375 7.92023 19.0487 7.12501 19.4597C4.88388 20.618 2.64544 21.7749 0.402475 22.9275V22.9264V22.9195V22.9127V22.9059V22.8991V22.8923V22.8855V22.8787V22.8719V22.865V22.8582V22.8514V22.8446V22.8378V22.831V22.8242V22.8174V22.8106V22.8038V22.797V22.7902V22.7834V22.7766V22.7698V22.763V22.7562V22.7494V22.7426V22.7358V22.7291V22.7223V22.7155V22.7087V22.7019V22.6951V22.6883V22.6816V22.6748V22.668V22.6612V22.6544V22.6476V22.6409V22.6341V22.6273V22.6205V22.6138V22.607V22.6002V22.5934V22.5867V22.5799V22.5731V22.5664V22.5596V22.5528V22.5461V22.5393V22.5325V22.5258V22.519V22.5122V22.5055V22.4987V22.4919V22.4852V22.4784V22.4717V22.4649V22.4582V22.4514V22.4446V22.4379V22.4311V22.4244V22.4176V22.4109V22.4041V22.3974V22.3906V22.3839V22.3771V22.3704V22.3637V22.3569V22.3502V22.3434V22.3367V22.3299V22.3232V22.3165V22.3097V22.303V22.2962V22.2895V22.2828V22.276V22.2693V22.2626V22.2558V22.2491V22.2424V22.2356V22.2289V22.2222V22.2154V22.2087V22.202V22.1953V22.1885V22.1818V22.1751V22.1684V22.1616V22.1549V22.1482V22.1415V22.1347V22.128V22.1213V22.1146V22.1079V22.1011V22.0944V22.0877V22.081V22.0743V22.0676V22.0608V22.0541V22.0474V22.0407V22.034V22.0273V22.0206V22.0139V22.0072V22.0004V21.9937V21.987V21.9803V21.9736V21.9669V21.9602V21.9535V21.9468V21.9401V21.9334V21.9267V21.92V21.9133V21.9066V21.8999V21.8932V21.8865V21.8798V21.8731V21.8664V21.8597V21.853V21.8463V21.8396V21.8329V21.8262V21.8195V21.8128V21.8062V21.7995V21.7928V21.7861V21.7794V21.7727V21.766V21.7593V21.7526V21.7459V21.7393V21.7326V21.7259V21.7192V21.7125V21.7058V21.6992V21.6925V21.6858V21.6791V21.6724V21.6657V21.6591V21.6524V21.6457V21.639V21.6323V21.6257V21.619V21.6123V21.6056V21.5989V21.5923V21.5856V21.5789V21.5722V21.5656V21.5589V21.5522V21.5456V21.5389V21.5322V21.5255V21.5189V21.5122V21.5055V21.4988V21.4922V21.4855V21.4788V21.4722V21.4655V21.4588V21.4522V21.4455V21.4388V21.4322V21.4255V21.4188V21.4122V21.4055V21.3988V21.3922V21.3855V21.3788V21.3722V21.3655V21.3589V21.3522V21.3455V21.3389V21.3322V21.3256V21.3189V21.3122V21.3056V21.2989V21.2923V21.2856V21.2789V21.2723V21.2656V21.259V21.2523V21.2456V21.239V21.2323V21.2257V21.219V21.2124V21.2057V21.1991V21.1924V21.1857V21.1791V21.1724V21.1658V21.1591V21.1525V21.1458V21.1392V21.1325V21.1259V21.1192V21.1126V21.1059V21.0993V21.0926V21.086V21.0793V21.0727V21.066V21.0594V21.0527V21.0461V21.0394V21.0328V21.0261V21.0195V21.0128V21.0062V20.9995V20.9929V20.9862V20.9796V20.9729V20.9663V20.9596V20.953V20.9463V20.9397V20.9331V20.9264V20.9198V20.9131V20.9065V20.8998V20.8932V20.8865V20.8799V20.8732V20.8666V20.86V20.8533V20.8467V20.84V20.8334V20.8267V20.8201V20.8135V20.8068V20.8002V20.7935V20.7869V20.7802V20.7736V20.767V20.7603V20.7537V20.747V20.7404V20.7337V20.7271V20.7205V20.7138V20.7072V20.7005V20.6939V20.6873V20.6806V20.674V20.6673V20.6607V20.654V20.6474V20.6408V20.6341V20.6275V20.6208V20.6142V20.6076V20.6009V20.5943V20.5876V20.581V20.5744V20.5677V20.5611V20.5544V20.5478V20.5412V20.5345V20.5279V20.5212V20.5146V20.508V20.5013V20.4947V20.488V20.4814V20.4748V20.4681V20.4615V20.4548V20.4482V20.4415V20.4349V20.4283V20.4216V20.415V20.4083V20.4017V20.3951V20.3884V20.3818V20.3751V20.3685V20.3619V20.3552V20.3486V20.3419V20.3353V20.3287V20.322V20.3154V20.3087V20.3021V20.2954V20.2888V20.2822V20.2755V20.2689V20.2622V20.2556V20.2489V20.2423V20.2357V20.229V20.2224V20.2157V20.2091V20.2024V20.1958V20.1892V20.1825V20.1759V20.1692V20.1626V20.1559V20.1493V20.1427V20.136V20.1294V20.1227V20.1161V20.1094V20.1028V20.0961V20.0895V20.0828V20.0762V20.0695V20.0674C0.406896 20.0654 0.411848 20.0633 0.417391 20.0609C0.429194 20.0559 0.440157 20.0514 0.453486 20.046C0.459338 20.0436 0.465647 20.041 0.472683 20.0381C0.493477 20.0296 0.518937 20.019 0.545168 20.0068L0.545191 20.0069L0.550821 20.0042C1.47617 19.5549 2.40156 19.1077 3.32731 18.6604C4.25295 18.2132 5.17895 17.7658 6.105 17.3162L6.105 17.3162L6.10679 17.3153C6.22296 17.2581 6.32905 17.2008 6.49585 17.1004L7.05426 16.7642L6.46555 16.4845C6.06665 16.2949 5.67431 16.1112 5.29037 15.9315C4.95777 15.7758 4.63146 15.623 4.31263 15.4719L4.31123 15.4713C3.84004 15.2505 3.36878 15.0279 2.89726 14.8053C2.10524 14.4312 1.31248 14.0568 0.518063 13.6901L0.516963 13.6896C0.41221 13.6416 0.390902 13.6145 0.387806 13.6101L0.38773 13.61C0.387041 13.6091 0.384454 13.6055 0.381606 13.5936C0.378148 13.5792 0.374211 13.5517 0.375724 13.504L0.375766 13.504L0.375854 13.4986C0.389136 12.6808 0.387542 11.8667 0.385886 11.0212Z" fill="#11211D" stroke="#FEFEFE" stroke-width="0.7"/>
<path d="M0.0437471 7.02587L0.388986 6.96834C0.350789 6.73913 0.387519 6.61345 0.446253 6.52368C0.514332 6.41962 0.645502 6.31206 0.893029 6.18601C3.49352 4.87147 6.08388 3.53615 8.67439 2.20076C9.35682 1.84897 10.0393 1.49718 10.7219 1.14576C10.7217 1.25863 10.7215 1.37115 10.7213 1.48338C10.7196 2.34099 10.718 3.1815 10.7312 4.02584C10.7312 4.02674 10.7312 4.02762 10.7312 4.02846C10.7268 4.03083 10.7214 4.03359 10.7149 4.03676C10.7011 4.04348 10.6856 4.05051 10.665 4.05964L10.6565 4.06346C10.6389 4.07125 10.6178 4.08065 10.5968 4.09044C8.63029 5.00679 6.66347 5.92328 4.70545 6.83979L4.69021 6.84692L4.67573 6.85549L4.67532 6.85573C4.6321 6.88128 4.58901 6.90675 4.48455 6.96678L3.8989 7.30336L4.5116 7.58771C4.93127 7.78248 5.34179 7.9734 5.7472 8.16195C6.3762 8.45449 6.99291 8.7413 7.61241 9.02789C7.95627 9.18715 8.30093 9.34773 8.64601 9.50852C9.33744 9.83068 10.0306 10.1536 10.7225 10.4683C10.7328 10.4731 10.7415 10.4773 10.7488 10.4811C10.7431 11.2286 10.745 11.9739 10.747 12.7335C10.7475 12.9383 10.748 13.1442 10.7484 13.3514C10.3355 13.1491 9.93269 12.9489 9.53011 12.7444L9.52921 12.7439C8.29708 12.1224 7.06507 11.4972 5.83286 10.8719C4.10985 9.99745 2.38646 9.12284 0.66183 8.25802C0.505915 8.1792 0.440875 8.12099 0.411964 8.07787C0.392905 8.04945 0.3686 7.99806 0.389464 7.86591L0.389517 7.86592L0.390367 7.85986C0.429181 7.58262 0.440767 7.27442 0.388844 6.96749L0.0437471 7.02587ZM0.0437471 7.02587C0.0880389 7.28769 0.0791805 7.55824 0.0437471 7.81133L10.7223 0.751878C9.98567 1.13103 9.2494 1.51058 8.51325 1.89006C5.92283 3.22541 3.33399 4.55994 0.734698 5.87387C0.203197 6.14442 -0.0536947 6.44115 0.0437471 7.02587Z" fill="#11211D" stroke="#FEFEFE" stroke-width="0.7"/>
</svg>
