<svg width="51" height="48" viewBox="0 0 51 48" fill="none" xmlns="http://www.w3.org/2000/svg">
<path d="M30.3944 24.8172C27.7314 21.936 25.1998 18.9555 23.0628 15.6438C21.5505 13.2594 20.2025 10.5769 18.5915 8.92109C17.1449 7.39771 16.2244 5.77499 15.7641 4.11914C12.5421 5.04641 10.3065 5.84122 7.41328 8.88797C-12.7404 29.8179 16.4545 62.1399 38.8767 40.8789C40.5206 39.3224 39.9288 37.4347 40.9151 35.7458C37.7918 32.1029 33.6821 28.3607 30.3944 24.8172Z" fill="#DE814B"/>
<path d="M38.8786 40.8778C18.1002 57.8668 -10.8317 30.8765 7.41514 8.85379C7.71103 8.52262 8.0398 8.15833 8.36857 7.82716C12.544 3.65443 17.1797 1.70054 21.7167 1.40249C22.177 1.36937 22.5386 1.73365 22.5715 2.16417C22.6373 4.87976 24.3797 6.70119 26.9442 7.06547C27.3387 7.13171 27.5688 7.49599 27.4702 7.89339C27.2072 8.75443 27.1086 9.68171 27.1086 10.6421C27.2072 15.5103 31.2182 19.5174 36.0511 19.5505C37.0375 19.5505 37.9909 19.4181 38.9115 19.12C39.2731 18.9876 39.6676 19.2194 39.7334 19.6168C40.3252 22.8622 43.2512 22.2661 44.6321 21.8025C45.0266 21.67 45.454 21.9018 45.5526 22.2992C48.2486 32.2012 38.8786 40.8778 38.8786 40.8778Z" fill="#F6B059"/>
<path d="M24.772 19.9494C24.772 22.4 22.7994 24.0559 20.3665 24.0559C17.9336 24.0559 15.9609 22.4 15.9609 19.9494C15.9609 17.4987 17.9336 15.5117 20.3665 15.5117C22.7994 15.5117 24.772 17.4656 24.772 19.9494Z" fill="#6D420D"/>
<path d="M38.6129 30.6473C38.6129 32.5349 37.1005 34.0583 35.2265 34.0583C33.3525 34.0583 32.0703 32.9324 32.0703 31.0447C32.0703 29.157 33.3525 27.2031 35.2265 27.2031C37.1005 27.2031 38.6129 28.7596 38.6129 30.6473Z" fill="#6D420D"/>
<path d="M13.2962 26.4737C13.2962 27.9308 12.2441 28.7587 10.7975 28.7587C9.35089 28.7587 8.10156 27.9308 8.10156 26.4737C8.10156 25.0165 9.25226 23.8574 10.6989 23.8574C12.1455 23.8574 13.2962 25.0165 13.2962 26.4737Z" fill="#6D420D"/>
<path d="M21.2578 35.3485C21.2578 36.0108 20.7317 36.5407 20.0742 36.5407C19.4167 36.5407 18.8906 36.0108 18.8906 35.3485C18.8906 34.6861 19.4167 34.1562 20.0742 34.1562C20.7317 34.1562 21.2578 34.6861 21.2578 35.3485Z" fill="#6D420D"/>
<path d="M13.2331 12.4658C13.9594 12.4658 14.5481 11.8727 14.5481 11.1411C14.5481 10.4095 13.9594 9.81641 13.2331 9.81641C12.5068 9.81641 11.918 10.4095 11.918 11.1411C11.918 11.8727 12.5068 12.4658 13.2331 12.4658Z" fill="#6D420D"/>
<path d="M37.0015 3.19352C37.133 4.78313 35.7522 6.07469 33.9111 6.07469C32.0699 6.07469 30.6562 4.65066 30.7549 2.89547C30.8535 1.14027 32.2343 -0.151284 33.8453 0.0143001C35.4563 0.179884 36.87 1.57079 37.0015 3.19352Z" fill="#F6B059"/>
<path d="M34.6366 5.44605C35.3599 5.44605 36.0175 5.24735 36.5435 4.88306C35.9846 5.61163 35.064 6.07527 33.9462 6.07527C32.1051 6.07527 30.6914 4.65124 30.79 2.92917C30.8558 1.86943 31.3818 0.975269 32.138 0.478516C31.7763 0.975269 31.5133 1.60449 31.4804 2.29994C31.4147 3.98891 32.8284 5.41293 34.6366 5.44605Z" fill="#DE814B"/>
<path d="M36.8443 12.202C36.7786 13.2618 35.8909 14.1559 34.8717 14.2553C33.8525 14.3215 33.0306 13.4605 33.0635 12.3345C33.0635 11.2085 33.9511 10.2812 35.0361 10.2812C36.121 10.2812 36.9101 11.1423 36.8443 12.202Z" fill="#F6B059"/>
<path d="M35.263 13.7907C35.6575 13.7576 36.052 13.592 36.3808 13.3602C36.0192 13.857 35.4603 14.1881 34.8356 14.2544C33.8164 14.3206 33.0273 13.4596 33.0273 12.3336C33.0273 11.6712 33.3561 11.042 33.8493 10.6777C33.6191 11.0089 33.4547 11.4394 33.4547 11.8699C33.4219 12.9959 34.2438 13.857 35.263 13.7907Z" fill="#DE814B"/>
<path d="M50.2838 13.0293C50.1852 14.2877 49.166 15.3475 47.9495 15.4137C46.7659 15.4799 45.8125 14.4864 45.8125 13.1618C45.8454 11.8371 46.8646 10.7773 48.1468 10.7773C49.429 10.7773 50.3824 11.804 50.2838 13.0293Z" fill="#F6B059"/>
<path d="M48.4427 14.9181C48.9358 14.885 49.3961 14.6863 49.7578 14.3882C49.3304 14.9843 48.6728 15.3817 47.9495 15.4148C46.7659 15.4811 45.8125 14.4876 45.8125 13.1629C45.8125 12.3681 46.207 11.6726 46.7659 11.209C46.47 11.6064 46.3057 12.1031 46.3057 12.633C46.3057 13.9908 47.2591 14.9843 48.4427 14.9181Z" fill="#DE814B"/>
</svg>
