<svg width="24" height="16" viewBox="0 0 24 16" fill="none" xmlns="http://www.w3.org/2000/svg">
<path d="M21.534 3.99015C22.51 3.42154 23.331 2.71179 24 1.89456V1.89374C23.107 2.21456 22.157 2.4279 21.165 2.53128C22.185 2.03159 22.964 1.24636 23.33 0.300308C22.379 0.765538 21.329 1.09374 20.21 1.27754C19.307 0.488205 18.02 0 16.616 0C13.892 0 11.699 1.81415 11.699 4.03774C11.699 4.35774 11.732 4.66544 11.813 4.95836C7.723 4.79426 4.103 3.18605 1.671 0.735179C1.247 1.3399 0.997 2.03159 0.997 2.77579C0.997 4.17395 1.874 5.41292 3.183 6.13087C2.392 6.11856 1.617 5.92985 0.96 5.63364V5.67795C0.96 7.63979 2.665 9.26933 4.902 9.64513C4.501 9.73538 4.065 9.77805 3.612 9.77805C3.297 9.77805 2.979 9.76328 2.681 9.70913C3.318 11.3075 5.128 12.4833 7.278 12.5218C5.604 13.5959 3.478 14.2433 1.177 14.2433C0.774 14.2433 0.387 14.2285 0 14.1883C2.18 15.3411 4.762 16 7.548 16C16.231 16 21.89 10.0562 21.534 3.99015Z" fill="#5160AC"/>
</svg>
